<svg xmlns="http://www.w3.org/2000/svg" width="287.1" height="316.6" viewBox="0 0 287.1 316.6"><style>.st0{display:none}.st1{display:inline}.st2{fill-rule:evenodd;clip-rule:evenodd;fill:#00a8d0}</style><g id="Ebene_1" class="st0"><g id="XMLID_6_" class="st1"><path id="XMLID_147_" class="st2" d="M110.5 316.6h61.3V175.1h45.3l9.1-57.2h-54.4V74.7c0-16 15.3-25.1 30-25.1h26.5V2.2L180.9.1c-45.3-2.8-70.4 32.8-70.4 75.3V118H58.9v57.2h51.6v141.4z"/></g></g><g id="Ebene_2" class="st0"><g id="XMLID_8_" class="st1"><path id="XMLID_3_" class="st2" d="M77.4 15.1h132.3c42.5 0 77.4 35 77.4 77.4v131.6c0 42.5-35 77.4-77.4 77.4H77.4C35 301.5 0 266.6 0 224.1V92.5C0 50 35 15.1 77.4 15.1zm143.3 50c8.9 0 16.4 7.5 16.4 16.4 0 8.9-7.5 16.4-16.4 16.4-9.6 0-16.4-7.5-16.4-16.4-.1-8.9 6.8-16.4 16.4-16.4zm-77.5 15.1h.7c42.5 0 78.1 35.6 78.1 78.1 0 43.2-35.6 78.1-78.1 78.1h-.7c-42.5 0-77.4-35-77.4-78.1 0-42.5 34.9-78.1 77.4-78.1zm0 26.7h.7c28.1 0 51.4 23.3 51.4 51.4 0 28.8-23.3 52.1-51.4 52.1h-.7c-28.1 0-51.4-23.3-51.4-52.1 0-28.1 23.3-51.4 51.4-51.4zM78.1 39.7H209c29.5 0 53.5 24 53.5 53.5v130.2c0 29.5-24 53.5-53.5 53.5H78.1c-29.5 0-53.5-24-53.5-53.5V93.2c.1-29.5 24.1-53.5 53.5-53.5z"/></g></g><g id="Ebene_3"><g id="XMLID_189_"><path id="XMLID_73_" class="st2" d="M23.9 144.7c61.9-25.9 136.7-62.8 201.5-87.8 59.9-21.9 58.9-16 49.9 43.9-7 47.9-15 95.8-22.9 143.7-3 22.9-15 34.9-39.9 20.9l-77.8-54.9c-11-9-8-16 1-24.9l71.8-67.8c19-19 10-25.9-12-11l-98.8 66.8c-14 10-28.9 10-44.9 5l-33.9-12c-21.9-7.9-4.9-16.9 6-21.9z"/></g></g></svg>