<?xml version="1.0" encoding="utf-8"?>
<!-- Generator: Adobe Illustrator 26.2.1, SVG Export Plug-In . SVG Version: 6.00 Build 0)  -->
<svg version="1.1" id="Ebene_1" xmlns="http://www.w3.org/2000/svg" xmlns:xlink="http://www.w3.org/1999/xlink" x="0px" y="0px"
	 width="35.9px" height="25.2px" viewBox="0 0 35.9 25.2" style="enable-background:new 0 0 35.9 25.2;" xml:space="preserve">
<style type="text/css">
	.st0{fill:#00A9D1;}
</style>
<path class="st0" d="M35.1,3.9c-0.4-1.6-1.6-2.8-3.2-3.2C29.2,0,17.9,0,17.9,0S6.7,0,3.9,0.8C2.4,1.2,1.2,2.4,0.7,3.9
	C0,6.8,0,12.6,0,12.6s0,5.9,0.7,8.7c0.4,1.6,1.6,2.7,3.2,3.1c2.8,0.8,14,0.8,14,0.8s11.2,0,14-0.8c1.5-0.4,2.8-1.6,3.2-3.1
	c0.7-2.8,0.7-8.7,0.7-8.7S35.9,6.8,35.1,3.9z M14.3,18V7.3l9.4,5.3L14.3,18L14.3,18z"/>
</svg>
