<svg xmlns="http://www.w3.org/2000/svg" version="1.1" xmlns:xlink="http://www.w3.org/1999/xlink" width="512" height="512"><svg xmlns="http://www.w3.org/2000/svg" version="1.1" xmlns:xlink="http://www.w3.org/1999/xlink" width="512" height="512"><svg width="512" height="512" viewBox="0 0 512 512" fill="none" xmlns="http://www.w3.org/2000/svg">
<path d="M368.742 316.514C361.707 312.863 354.493 309.3 347.547 305.382C340.334 301.374 333.388 296.921 326.352 292.646C326.085 292.468 325.818 292.201 325.462 291.934C326.798 291.666 327.955 291.488 329.113 291.221C333.12 290.241 336.861 288.995 339.799 285.61C343.451 281.424 341.848 275.368 336.861 273.409C336.059 273.053 335.169 272.786 334.1 272.429C334.723 272.073 335.08 271.895 335.436 271.628C336.415 270.826 337.573 270.203 338.464 269.312C341.67 266.017 340.957 261.208 336.95 259.07C335.525 258.269 333.922 257.645 332.319 257.467C328.312 257.022 324.215 256.844 320.208 256.488C319.139 256.488 318.159 256.398 317.002 256.309V285.788C316.824 285.877 316.735 285.966 316.556 286.056C312.549 282.493 308.453 279.02 304.445 275.457C300.171 271.628 296.43 267.353 292.957 262.811C287.792 256.131 283.696 248.739 279.866 241.258C277.373 236.449 274.879 231.729 272.475 226.919C271.851 225.762 271.228 225.227 269.803 225.316C267.755 225.405 265.707 225.494 263.658 225.316C261.788 225.138 260.898 225.851 260.096 227.454C256.445 234.401 252.527 241.169 247.807 247.492C245.848 250.164 243.71 252.658 241.484 255.063C238.367 258.536 235.161 261.831 231.688 265.483C228.215 261.831 225.009 258.536 221.981 255.063C218.953 251.678 216.015 248.205 213.076 244.642C210.315 241.169 207.644 237.607 205.061 234.133C200.341 227.721 196.067 220.952 192.059 214.095C187.428 206.079 183.332 197.797 179.681 189.247C179.235 188.267 178.701 188 177.721 188C171.755 188 165.699 188 159.733 188C158.753 188 158.308 188.356 157.862 189.247C155.191 194.59 152.786 200.023 149.759 205.189C145.573 212.224 141.031 218.993 136.49 225.762C134.085 229.324 131.413 232.708 128.742 236.182C126.07 239.566 123.399 242.95 120.549 246.246C117.61 249.719 114.582 253.192 111.376 256.577C108.17 260.05 104.964 263.434 101.581 266.729C98.0186 270.203 94.4565 273.676 90.7162 276.971C86.7978 280.445 82.7904 283.918 78.6049 287.213C74.1522 290.687 69.6995 294.16 64.9796 297.366C59.8145 300.84 54.5603 304.313 49.2171 307.43C40.0446 312.596 30.5158 317.138 20.6308 320.789C19.1169 321.324 17.5139 321.858 16 322.392C16.2672 322.57 16.4453 322.57 16.6234 322.57C25.974 320.789 35.3247 318.919 44.6754 317.138C48.7718 316.336 52.9574 315.624 57.0538 314.911C68.1856 313.041 79.4064 311.171 90.5381 309.3C97.1281 308.232 103.718 306.985 110.397 306.183C119.213 305.025 128.118 304.135 136.935 303.333C144.237 302.71 151.629 302.175 158.931 302.086C169.796 302.086 180.571 302.175 191.436 302.621C198.293 302.888 205.239 303.6 212.096 304.313C219.132 305.114 226.078 306.183 233.024 307.163C238.723 307.964 244.423 308.677 250.122 309.746C264.727 312.328 279.332 315 294.026 317.672C300.171 318.83 306.315 319.988 312.46 321.145C315.933 321.769 319.406 322.392 322.879 323.105C311.837 318.919 301.328 313.753 290.82 308.499C290.998 308.321 291.176 308.232 291.354 308.232C297.143 308.588 302.931 308.677 308.72 309.211C316.556 310.013 324.304 310.992 332.052 312.417C340.957 314.021 349.684 315.98 358.501 317.939C363.31 318.919 368.03 320.077 372.749 321.234C375.243 321.769 377.736 322.392 380.23 323.016C376.401 320.967 372.571 319.008 368.742 317.049V316.514ZM157.328 285.788C155.28 288.549 152.43 289.974 149.402 291.043C144.593 292.735 139.606 292.913 134.53 292.913C134.352 292.913 134.085 292.824 133.907 292.735V256.844C135.154 256.844 136.311 256.844 137.558 256.844C141.387 257.111 145.217 257.289 149.046 257.734C150.56 257.913 152.074 258.447 153.499 259.07C158.397 261.386 159.109 266.997 155.013 270.559C154.033 271.45 152.786 272.162 151.629 272.964C152.519 273.32 153.41 273.498 154.211 273.854C158.664 275.814 160.89 281.246 157.506 285.788H157.328ZM212.809 293.893C211.384 291.31 209.959 288.816 208.712 286.234C207.644 284.007 207.555 283.829 205.061 283.918C201.054 284.096 197.046 284.363 193.039 284.452C191.703 284.452 191.347 285.165 190.901 286.145C189.833 288.727 188.675 291.221 187.428 293.893C184.846 292.379 182.53 291.043 179.948 289.618C186.449 277.862 192.95 266.195 199.54 254.261C206.575 266.017 213.521 277.506 220.467 289.084C217.885 290.687 215.391 292.201 212.72 293.715L212.809 293.893ZM284.052 294.071C281.38 286.946 278.798 279.91 276.126 272.518C272.208 278.753 268.467 284.809 264.549 291.132C261.076 284.898 257.781 278.931 254.308 272.697C253.239 275.992 252.26 279.109 251.191 282.493C249.143 280.801 247.183 279.287 245.313 277.773C245.135 277.595 245.046 277.06 245.224 276.793C247.718 269.847 250.3 262.989 252.794 256.042C252.794 255.953 252.972 255.864 253.239 255.508C257.247 262.811 261.254 269.936 265.35 277.239C269.358 270.381 273.454 263.523 277.462 256.666C277.64 256.666 277.818 256.666 277.907 256.666C282.538 267.887 287.169 279.02 291.889 290.42C289.306 291.577 286.812 292.646 284.052 293.893V294.071ZM325.017 262.276C325.017 261.92 325.017 261.475 325.017 261.03C326.887 260.852 328.579 261.03 330.182 262.009C332.141 263.167 332.675 265.483 331.517 267.709C330.449 269.936 327.955 271.361 324.927 271.45C324.927 268.333 324.927 265.305 324.927 262.187L325.017 262.276ZM325.017 275.636C327.421 275.101 331.25 276.615 332.586 278.485C333.744 280.178 333.566 282.315 331.963 283.829C330.093 285.699 327.866 286.857 325.017 287.213V275.636Z" fill="#1D1D1B"></path>
<path d="M384.326 292.735C378.182 292.735 373.106 291.31 369.633 286.857C364.913 280.89 364.467 274.121 367.406 267.175C370.345 260.228 375.866 256.755 383.169 255.775C384.326 255.597 385.395 255.241 386.464 255.33C392.876 256.131 399.02 257.734 401.959 264.147C405.343 271.361 404.809 278.485 400.089 285.076C395.993 290.776 390.204 292.557 384.237 292.824L384.326 292.735ZM384.416 286.145C388.69 286.145 392.43 283.651 393.944 279.376C395.547 274.834 395.458 270.381 393.054 266.106C391.451 263.256 388.957 261.92 385.84 261.742C382.456 261.564 379.607 262.811 377.647 265.572C375.243 269.045 374.531 272.964 374.976 277.15C375.599 282.404 379.429 286.145 384.416 286.145Z" fill="#1D1D1B"></path>
<path d="M476.319 256.399C482.553 256.042 488.698 255.686 495.02 255.241C495.02 257.2 495.199 259.07 495.199 261.03C495.199 261.297 494.397 261.653 494.041 261.653C491.369 261.742 488.787 261.742 486.115 261.831C485.67 261.831 485.225 261.831 484.69 261.831V271.272C487.629 271.183 490.568 271.004 493.685 270.915V277.15H484.779V285.521H496V292.379C489.588 292.201 482.998 292.023 476.408 291.934V256.399H476.319Z" fill="#1D1D1B"></path>
<path d="M439.006 285.165H450.048V292.379C443.458 292.201 436.868 292.023 430.278 291.845V256.309H438.917V285.076L439.006 285.165Z" fill="#1D1D1B"></path>
<path d="M142.189 287.48C142.189 283.918 142.189 280.445 142.189 277.06C142.189 276.793 142.812 276.348 142.99 276.348C144.682 276.704 146.553 276.971 148.067 277.684C150.293 278.842 150.916 281.335 149.669 283.295C147.977 285.788 145.484 287.213 142.189 287.48Z" fill="#1D1D1B"></path>
<path d="M142.189 271.717V261.742C144.95 261.119 148.69 262.633 148.957 265.037C149.135 266.819 148.69 268.243 147.532 269.49C146.107 271.004 144.059 271.895 142.189 271.717Z" fill="#1D1D1B"></path>
<path d="M204.794 278.218C201.143 278.396 197.848 278.574 194.286 278.753C196.067 275.101 197.67 271.628 199.451 267.798C201.232 271.361 202.924 274.656 204.794 278.218Z" fill="#1D1D1B"></path>
</svg></svg><style>@media (prefers-color-scheme: light) { :root { filter: none; } }
@media (prefers-color-scheme: dark) { :root { filter: invert(100%); } }
</style></svg>