<?xml version="1.0" standalone="no"?>
<!DOCTYPE svg PUBLIC "-//W3C//DTD SVG 20010904//EN"
 "http://www.w3.org/TR/2001/REC-SVG-20010904/DTD/svg10.dtd">
<svg version="1.0" xmlns="http://www.w3.org/2000/svg"
 width="512.000000pt" height="512.000000pt" viewBox="0 0 512.000000 512.000000"
 preserveAspectRatio="xMidYMid meet">
<metadata>
Created by potrace 1.14, written by Peter Selinger 2001-2017
</metadata>
<g transform="translate(0.000000,512.000000) scale(0.100000,-0.100000)"
fill="#000000" stroke="none">
<path d="M1240 4799 c-30 -5 -57 -13 -60 -17 -3 -4 -4 -194 -2 -423 l3 -417
42 -5 c23 -3 70 -3 105 0 l62 6 0 152 0 152 60 6 c145 13 256 119 268 255 18
209 -194 338 -478 291z m238 -199 c54 -25 77 -69 58 -115 -14 -35 -57 -54
-127 -54 -46 -1 -46 -1 -53 37 -8 49 -8 137 1 145 13 13 79 6 121 -13z"/>
<path d="M3967 4801 c-32 -5 -59 -10 -61 -12 -3 -2 -2 -196 1 -431 l6 -428 72
0 c40 0 86 3 103 6 l30 6 -5 152 c-4 107 -2 148 5 141 20 -19 109 -173 138
-239 l28 -66 86 1 c124 1 125 2 89 74 -17 33 -64 111 -105 173 -41 62 -74 117
-74 122 0 6 9 10 20 10 51 0 116 57 149 130 56 124 0 277 -126 340 -42 21 -63
24 -173 26 -69 2 -151 -1 -183 -5z m232 -172 c31 -11 61 -52 61 -84 0 -9 -7
-29 -15 -45 -12 -23 -24 -30 -59 -35 -24 -4 -58 -4 -75 0 l-31 7 0 74 0 73 33
10 c44 13 49 13 86 0z"/>
<path d="M2424 4791 c-20 -9 -22 -18 -26 -168 -2 -87 -2 -278 0 -425 l5 -268
83 0 84 0 0 193 c0 107 3 197 7 200 3 4 20 -30 38 -76 17 -45 55 -135 85 -199
l54 -118 78 0 78 0 -2 433 -3 432 -81 3 -81 3 -6 -48 c-3 -26 -3 -102 0 -169
4 -76 2 -123 -4 -127 -6 -4 -46 68 -92 163 -69 145 -84 170 -104 170 -12 0
-38 2 -57 5 -19 3 -45 1 -56 -4z"/>
<path d="M3230 4793 l-66 -4 -27 -102 c-57 -216 -157 -691 -157 -747 0 -6 39
-10 89 -10 l89 0 11 33 c5 17 13 48 16 67 4 19 11 52 16 73 10 36 12 38 47 35
40 -3 36 4 84 -158 l13 -45 83 -3 c45 -2 82 -1 82 1 0 11 -85 401 -136 620
-29 131 -54 240 -54 243 0 2 -6 3 -12 2 -7 -1 -42 -3 -78 -5z m44 -369 c23
-146 23 -144 -22 -144 -21 0 -41 2 -44 5 -3 3 1 49 8 103 26 187 34 192 58 36z"/>
<path d="M3580 4365 l0 -435 108 0 107 0 2 429 1 428 -81 7 c-45 3 -94 6 -109
6 l-28 0 0 -435z"/>
<path d="M712 4775 c-23 -7 -54 -20 -67 -29 -71 -47 -93 -188 -78 -498 9 -186
12 -208 33 -246 34 -59 89 -85 188 -85 94 -1 179 24 220 65 52 50 63 101 72
337 11 291 0 355 -70 415 -62 51 -202 71 -298 41z m159 -165 c45 -24 53 -64
57 -263 l4 -187 -35 -35 c-30 -30 -42 -35 -80 -35 -93 0 -117 56 -119 276 0
101 3 128 20 167 31 70 100 105 153 77z"/>
<path d="M1925 4781 l-120 -6 -3 -417 -2 -417 47 -7 c53 -8 452 2 462 12 3 3
7 39 9 79 l4 74 -163 3 -164 3 -3 76 c-3 87 -2 89 94 89 l52 0 4 63 c3 34 2
73 -2 87 -6 23 -11 25 -78 28 -83 3 -88 10 -74 97 l7 50 155 5 154 5 8 40 c5
22 7 63 6 90 l-3 50 -135 1 c-74 0 -189 -2 -255 -5z"/>
<path d="M945 3441 c-189 -31 -285 -102 -346 -259 -18 -46 -23 -82 -26 -182
-2 -70 0 -131 6 -139 19 -28 348 -26 355 2 2 7 9 45 15 85 14 91 31 126 70
142 26 11 35 10 57 -5 53 -35 69 -128 34 -199 -22 -44 -59 -74 -230 -182 -204
-129 -261 -186 -290 -294 -12 -44 -32 -390 -23 -400 6 -6 661 -1 801 7 l114 6
-4 136 c-1 75 -7 142 -11 149 -7 10 -63 11 -263 6 -222 -6 -254 -5 -254 8 0
18 70 126 97 151 11 10 70 44 131 76 273 145 333 216 332 395 -2 262 -95 430
-266 482 -59 17 -230 26 -299 15z"/>
<path d="M1970 3439 c-118 -20 -253 -115 -307 -214 -80 -147 -100 -288 -85
-591 13 -242 29 -328 78 -411 50 -83 89 -119 169 -159 200 -98 402 -59 530
104 133 166 207 442 191 702 -11 178 -49 295 -133 405 -100 130 -271 194 -443
164z m122 -356 c49 -43 77 -265 59 -477 -10 -133 -26 -192 -58 -228 -18 -20
-54 -23 -83 -8 -24 13 -55 96 -69 187 -22 143 -7 423 27 493 28 57 80 71 124
33z"/>
<path d="M2980 3439 c-30 -5 -83 -19 -117 -30 -163 -54 -262 -236 -250 -457 3
-52 8 -96 11 -100 11 -10 163 -15 259 -7 l94 7 11 74 c15 94 33 138 67 160 58
38 116 -22 116 -120 0 -97 -11 -110 -267 -276 -164 -106 -227 -166 -254 -238
-34 -91 -56 -441 -27 -443 41 -4 683 2 782 7 l120 6 -3 117 c-1 64 -5 131 -8
149 l-5 32 -259 -6 c-154 -4 -260 -3 -260 2 0 22 62 113 101 149 24 22 99 69
166 104 147 77 223 135 260 198 28 47 28 50 28 208 -1 142 -3 166 -23 216 -49
122 -146 217 -244 239 -73 16 -232 21 -298 9z"/>
<path d="M3989 3439 c-75 -11 -164 -42 -211 -75 -46 -32 -102 -114 -130 -192
-18 -46 -22 -80 -22 -184 -1 -69 2 -130 6 -134 12 -12 158 -17 262 -9 95 7 96
7 96 33 0 15 7 59 15 97 11 55 21 76 45 98 38 34 60 34 93 1 43 -43 50 -153
13 -209 -9 -13 -89 -73 -179 -131 -229 -151 -280 -193 -310 -263 -32 -72 -38
-113 -46 -304 -4 -102 -2 -157 4 -158 33 -4 699 3 793 8 l112 6 0 123 c0 67
-4 134 -10 148 l-10 26 -255 -6 c-140 -4 -255 -4 -255 0 0 4 11 29 25 57 37
71 92 121 198 174 215 111 302 187 328 289 17 70 6 276 -19 347 -38 107 -111
192 -196 230 -81 35 -221 47 -347 28z"/>
<path d="M4037 1530 c-96 -17 -177 -86 -226 -190 -23 -48 -26 -68 -26 -161 0
-103 1 -108 39 -182 l38 -76 -26 -33 c-52 -69 -70 -126 -70 -223 0 -115 27
-189 94 -255 74 -75 136 -95 300 -95 135 0 136 0 205 35 120 60 180 169 173
315 -4 90 -25 146 -82 211 l-34 39 38 43 c66 75 85 124 84 227 0 104 -11 149
-56 225 -28 46 -44 60 -98 88 -61 31 -73 33 -185 37 -66 2 -141 0 -168 -5z
m148 -335 c14 -13 25 -35 25 -47 0 -34 -27 -68 -55 -68 -51 0 -76 94 -33 124
30 21 35 20 63 -9z m16 -424 c34 -27 33 -95 -1 -123 -49 -40 -128 5 -116 66
15 73 67 98 117 57z"/>
<path d="M835 1520 c-148 -4 -271 -7 -272 -8 -2 -1 -3 -134 -3 -296 l0 -294
28 -5 c15 -3 100 -3 189 0 143 5 165 4 188 -11 78 -51 87 -229 14 -280 -52
-36 -97 -13 -113 57 l-6 27 -144 0 -144 0 -7 -65 c-12 -109 13 -185 80 -243
48 -42 82 -59 157 -77 210 -49 445 31 520 179 17 33 22 65 26 161 5 143 -11
234 -59 331 -68 137 -159 194 -324 203 -92 6 -100 8 -103 27 -3 21 -1 22 222
26 124 2 228 7 232 11 4 4 9 62 12 130 l5 124 -33 6 c-18 4 -69 6 -114 5 -44
-1 -202 -5 -351 -8z"/>
<path d="M2196 1519 c-55 -184 -137 -423 -257 -753 -82 -225 -149 -416 -149
-424 0 -11 8 -13 38 -7 20 4 38 8 38 8 10 12 202 548 284 793 121 361 128 384
108 384 -7 0 -23 3 -35 6 -15 4 -24 1 -27 -7z"/>
<path d="M2742 1514 c-122 -32 -233 -108 -273 -185 -15 -31 -22 -75 -30 -207
-31 -481 45 -728 243 -787 102 -30 275 -12 376 39 71 36 113 75 148 138 26 48
29 62 29 143 -1 141 -41 211 -155 271 -44 23 -170 24 -251 2 l-56 -15 -7 102
c-8 122 4 189 41 228 36 37 68 35 93 -5 11 -18 20 -44 20 -58 1 -52 7 -54 146
-46 83 4 131 11 136 19 5 6 7 46 6 87 -5 122 -63 211 -172 265 -43 22 -63 25
-145 24 -53 0 -120 -7 -149 -15z m244 -819 c17 -91 -110 -139 -140 -52 -13 35
17 77 65 93 44 15 66 3 75 -41z"/>
<path d="M1422 540 c-22 -9 -23 -14 -20 -107 l3 -98 122 -3 121 -3 7 63 c4 35
5 83 3 108 l-3 45 -105 2 c-58 1 -115 -2 -128 -7z"/>
<path d="M3310 543 c-25 -10 -30 -25 -30 -105 0 -114 -7 -108 130 -108 l119 0
6 43 c3 23 5 71 3 107 l-3 65 -105 2 c-58 1 -112 -1 -120 -4z"/>
</g>
</svg>
