<?xml version="1.0" standalone="no"?>
<!DOCTYPE svg PUBLIC "-//W3C//DTD SVG 20010904//EN"
 "http://www.w3.org/TR/2001/REC-SVG-20010904/DTD/svg10.dtd">
<svg version="1.0" xmlns="http://www.w3.org/2000/svg"
 width="512.000000pt" height="512.000000pt" viewBox="0 0 512.000000 512.000000"
 preserveAspectRatio="xMidYMid meet">
<metadata>
Created by potrace 1.14, written by Peter Selinger 2001-2017
</metadata>
<g transform="translate(0.000000,512.000000) scale(0.100000,-0.100000)"
fill="#000000" stroke="none">
<path d="M1250 4769 c-108 -12 -97 40 -94 -435 1 -339 4 -418 15 -425 16 -10
171 -10 188 0 7 5 10 58 8 158 l-3 150 47 2 c104 2 219 75 265 168 26 52 26
174 0 222 -35 66 -122 132 -192 146 -87 18 -164 22 -234 14z m224 -208 c81
-50 62 -143 -31 -156 -27 -4 -58 -8 -71 -10 -31 -5 -42 26 -42 115 0 63 2 69
23 72 42 7 88 -1 121 -21z"/>
<path d="M2770 4772 c-24 -2 -47 -8 -51 -13 -3 -5 -5 -84 -3 -174 1 -91 -2
-165 -6 -165 -4 0 -44 74 -88 164 -45 90 -85 167 -91 170 -19 12 -131 10 -143
-2 -9 -9 -12 -116 -12 -427 0 -228 2 -417 5 -419 9 -9 158 -15 163 -7 3 4 6
96 7 204 1 108 5 197 9 197 3 0 17 -30 29 -67 13 -38 38 -99 56 -138 17 -38
44 -98 60 -132 23 -53 32 -63 54 -64 14 0 39 -3 55 -5 17 -3 39 -3 51 0 21 5
21 6 21 438 l-1 433 -35 5 c-19 3 -55 4 -80 2z"/>
<path d="M4000 4774 c-8 -1 -40 -6 -71 -9 l-56 -6 4 -52 c3 -29 6 -222 6 -430
l2 -378 89 2 c124 3 123 2 120 52 -3 58 -6 174 -5 222 l1 40 33 -46 c17 -25
57 -96 87 -158 l55 -112 95 2 c52 1 98 3 102 6 12 7 -137 263 -204 350 -7 8 2
15 31 23 86 23 150 110 159 215 4 58 2 71 -27 128 -35 70 -93 121 -163 141
-38 12 -216 18 -258 10z m201 -185 c26 -14 43 -77 30 -112 -13 -33 -46 -47
-112 -47 -57 0 -59 2 -62 89 -3 67 -1 70 40 77 15 3 29 7 31 9 6 5 53 -5 73
-16z"/>
<path d="M3562 4751 c-5 -14 -6 -118 -3 -611 0 -113 0 -214 -2 -224 -2 -17 7
-19 90 -23 51 -2 99 0 108 4 13 8 15 67 18 436 l4 427 -41 1 c-23 0 -70 2
-104 3 -51 3 -65 0 -70 -13z"/>
<path d="M692 4741 c-67 -20 -106 -58 -129 -125 -15 -42 -18 -85 -17 -251 0
-317 5 -358 46 -418 27 -38 80 -58 163 -62 128 -5 229 37 265 110 30 62 40
158 43 379 l1 203 -29 59 c-26 50 -38 63 -86 87 -70 36 -176 43 -257 18z m172
-173 c36 -36 40 -62 43 -246 1 -118 -2 -192 -9 -207 -16 -36 -52 -56 -101 -57
-94 -1 -116 45 -122 261 -3 98 12 189 36 217 42 51 118 67 153 32z"/>
<path d="M1885 4752 c-49 -2 -94 -7 -99 -12 -7 -7 -10 -574 -3 -765 l2 -70
248 -1 c136 -1 250 3 253 7 7 13 15 121 9 139 -4 12 -25 16 -92 18 -49 1 -119
4 -158 5 l-70 3 -3 77 c-2 42 -2 77 0 78 2 0 34 3 73 5 38 3 70 6 72 7 2 3 6
111 4 147 -1 25 -3 26 -76 25 -86 0 -88 2 -81 85 3 25 5 50 5 56 1 6 40 11
109 11 160 1 212 5 213 17 0 6 2 46 3 89 2 64 0 77 -13 78 -33 3 -309 4 -396
1z"/>
<path d="M3149 4750 c-20 -13 -143 -546 -174 -755 -3 -22 -8 -53 -11 -70 l-5
-30 86 0 c101 0 98 -3 121 112 9 43 20 83 25 89 12 15 69 10 80 -7 4 -7 17
-52 29 -100 21 -84 23 -87 53 -92 37 -6 124 -3 131 4 3 2 1 23 -4 44 -13 55
-58 265 -64 295 -2 14 -10 48 -16 75 -6 28 -13 57 -15 65 -2 8 -22 95 -44 193
-23 99 -41 181 -41 183 0 7 -139 1 -151 -6z m106 -369 c21 -139 23 -131 -31
-131 -38 0 -45 3 -40 18 3 9 8 42 11 72 8 66 13 105 21 144 10 45 21 14 39
-103z"/>
<path d="M980 3539 c-86 -7 -142 -21 -214 -53 -134 -60 -218 -234 -212 -438 3
-90 11 -109 43 -115 55 -10 303 0 324 13 5 3 9 18 9 34 0 40 20 130 35 160 29
56 97 64 129 14 22 -32 28 -58 27 -113 -2 -83 -34 -113 -281 -271 -168 -107
-249 -192 -265 -280 -11 -60 -16 -124 -20 -252 -5 -134 -4 -147 12 -151 10 -3
88 -4 173 -2 85 2 281 4 435 6 154 1 285 4 291 6 12 4 12 243 0 280 l-7 23
-260 -4 c-170 -2 -259 0 -259 6 0 20 59 114 92 145 18 17 89 62 158 98 257
138 311 203 315 372 3 167 -19 263 -83 361 -84 130 -221 179 -442 161z"/>
<path d="M3035 3542 c-68 -5 -176 -32 -231 -58 -124 -59 -216 -242 -209 -414
1 -30 3 -70 4 -88 1 -26 7 -35 29 -43 26 -10 225 -14 267 -5 11 3 32 5 48 5
23 1 27 5 27 32 0 61 31 169 56 194 86 86 177 -66 118 -196 -13 -30 -48 -58
-198 -157 -211 -139 -268 -188 -301 -253 -25 -48 -42 -136 -44 -224 -1 -27 -4
-93 -6 -145 -3 -62 0 -97 7 -101 6 -4 133 -5 282 -2 149 2 352 5 451 6 l180 2
0 135 c0 74 -4 143 -7 152 -7 16 -28 17 -268 14 -187 -2 -260 0 -260 8 0 26
82 137 122 166 23 17 90 56 148 86 184 96 260 165 286 261 15 57 11 248 -6
314 -27 103 -89 197 -163 247 -67 46 -87 51 -267 65 -14 1 -43 1 -65 -1z"/>
<path d="M1907 3520 c-119 -38 -222 -126 -276 -236 -73 -150 -87 -280 -67
-644 10 -179 21 -234 68 -323 129 -243 482 -305 668 -117 57 57 101 120 140
200 22 47 42 94 45 105 3 11 11 47 20 80 33 130 43 255 33 394 -8 119 -23 179
-63 266 -61 131 -142 216 -255 265 -75 32 -228 37 -313 10z m151 -331 c23 -8
35 -21 47 -52 26 -71 41 -186 39 -317 -3 -281 -30 -374 -107 -374 -49 0 -62
15 -87 96 -34 111 -41 238 -26 438 9 118 32 190 66 207 31 16 30 15 68 2z"/>
<path d="M3996 3495 c-48 -64 -199 -309 -311 -505 l-118 -205 -1 -95 c-2 -121
10 -196 32 -206 9 -4 107 -8 217 -9 l200 -1 -1 -39 c-1 -22 -5 -92 -9 -155 -8
-137 -8 -117 -6 -162 l1 -37 147 1 c163 1 202 9 204 41 3 40 6 91 13 172 4 44
7 97 8 118 l1 38 58 -3 c32 -2 60 0 63 3 4 3 9 76 12 161 l5 155 -69 7 -70 7
5 272 c3 150 6 317 6 372 l2 100 -183 0 -183 1 -23 -31z m78 -437 c-1 -46 -4
-129 -5 -185 -2 -57 -6 -103 -9 -104 -7 -1 -76 -1 -133 0 l-47 1 26 42 c15 23
57 106 95 185 37 79 70 143 72 143 3 0 3 -37 1 -82z"/>
<path d="M879 1605 c-3 -2 -22 -7 -42 -10 -189 -30 -292 -197 -279 -452 3 -55
17 -60 154 -58 149 3 168 7 169 43 1 30 2 32 12 87 16 82 74 115 120 69 27
-26 32 -47 29 -112 -3 -60 -26 -85 -147 -162 -150 -97 -261 -183 -286 -223
-36 -60 -43 -101 -53 -344 -3 -78 -2 -83 18 -84 12 0 91 0 176 2 285 3 545 7
573 8 l27 1 0 104 c0 58 -4 116 -10 131 l-10 26 -220 -4 c-162 -3 -220 -1
-220 8 0 18 60 108 89 132 14 12 66 44 116 69 118 61 198 116 229 157 75 98
63 361 -21 477 -77 105 -137 133 -299 137 -66 2 -123 1 -125 -2z"/>
<path d="M2150 1606 c0 -19 -158 -486 -228 -676 -126 -341 -182 -508 -182
-541 l0 -29 109 0 c60 0 120 4 133 9 20 7 37 41 90 178 93 237 329 929 344
1009 5 27 2 33 -17 39 -22 7 -249 17 -249 11z"/>
<path d="M2788 1605 c-2 -2 -20 -6 -40 -9 -123 -19 -251 -110 -278 -197 -15
-49 -21 -162 -9 -181 12 -18 269 -16 279 3 41 72 137 112 172 72 21 -23 29
-90 16 -119 -14 -29 -28 -34 -132 -43 -46 -5 -87 -11 -92 -14 -13 -8 -16 -199
-4 -232 9 -24 12 -25 60 -19 65 9 136 -11 157 -43 9 -14 16 -45 16 -70 0 -108
-110 -119 -176 -18 -26 41 -42 44 -172 32 -27 -3 -68 -5 -89 -6 l-39 -1 7 -94
c8 -124 13 -144 44 -191 53 -78 174 -115 367 -111 108 2 126 5 183 30 112 51
167 135 181 278 12 128 12 665 -1 725 -17 86 -105 156 -239 194 -38 10 -203
21 -211 14z"/>
<path d="M3900 1596 c-138 -36 -236 -166 -247 -327 -7 -94 8 -160 53 -234 28
-48 31 -59 21 -76 -6 -10 -15 -19 -18 -19 -3 0 -21 -32 -39 -72 -52 -113 -49
-233 10 -347 60 -118 196 -182 375 -176 102 3 125 7 189 34 123 54 199 186
192 340 -3 75 -35 147 -90 209 l-34 37 35 40 c46 51 91 150 96 210 2 26 -2 78
-9 115 -28 147 -89 224 -208 262 -46 15 -274 17 -326 4z m179 -341 c16 -16 17
-65 1 -94 -13 -26 -61 -28 -83 -3 -25 28 -26 82 -1 107 19 18 59 13 83 -10z
m-6 -426 c30 -16 37 -28 37 -69 0 -53 -23 -80 -69 -80 -53 0 -72 17 -73 66 -1
77 46 113 105 83z"/>
<path d="M1469 586 l-44 -11 0 -105 0 -105 126 -3 c97 -2 126 0 126 10 1 7 4
56 8 109 5 72 4 99 -5 104 -20 12 -162 12 -211 1z"/>
<path d="M3377 589 c-27 -4 -51 -10 -54 -13 -8 -8 -8 -178 -1 -198 6 -13 25
-16 127 -16 67 0 121 2 122 6 0 4 2 18 4 32 7 48 10 179 4 184 -9 9 -151 13
-202 5z"/>
</g>
</svg>
