<?xml version="1.0" standalone="no"?>
<!DOCTYPE svg PUBLIC "-//W3C//DTD SVG 20010904//EN"
 "http://www.w3.org/TR/2001/REC-SVG-20010904/DTD/svg10.dtd">
<svg version="1.0" xmlns="http://www.w3.org/2000/svg"
 width="512.000000pt" height="512.000000pt" viewBox="0 0 512.000000 512.000000"
 preserveAspectRatio="xMidYMid meet">
<metadata>
Created by potrace 1.14, written by Peter Selinger 2001-2017
</metadata>
<g transform="translate(0.000000,512.000000) scale(0.100000,-0.100000)"
fill="#000000" stroke="none">
<path d="M2808 4772 c-44 -4 -41 14 -38 -224 0 -71 -1 -128 -4 -128 -5 0 -69
129 -135 272 -14 31 -33 60 -41 63 -29 10 -131 8 -142 -3 -12 -12 -19 -815 -8
-832 7 -11 114 -22 144 -14 24 6 25 8 25 92 0 48 0 137 1 197 l1 110 38 -95
c21 -52 61 -143 88 -202 l51 -106 73 1 74 2 0 430 0 430 -45 5 c-25 3 -62 4
-82 2z"/>
<path d="M4098 4775 c-2 -1 -34 -5 -72 -9 -124 -12 -114 2 -110 -149 2 -73 4
-262 5 -422 l1 -290 82 2 c130 4 125 1 120 85 -5 89 -7 155 -5 187 1 23 2 23
20 7 16 -14 43 -64 148 -274 2 -5 195 -3 200 1 10 10 -49 125 -113 222 -89
135 -94 145 -64 145 36 0 105 50 133 96 41 68 47 113 26 207 -19 84 -115 169
-209 183 -32 5 -159 12 -162 9z m121 -190 c44 -22 55 -86 22 -126 -16 -20 -29
-24 -85 -25 -61 -2 -66 0 -67 20 0 11 -1 45 -2 74 -2 51 -1 53 28 61 45 14 73
13 104 -4z"/>
<path d="M1258 4758 l-27 -9 1 -407 c0 -224 3 -413 6 -420 6 -17 199 -15 205
2 2 6 3 74 2 152 l-1 140 36 1 c116 4 216 67 265 168 76 154 -13 322 -196 370
-57 15 -250 17 -291 3z m282 -199 c67 -38 79 -114 22 -143 -35 -18 -140 -26
-145 -11 -2 5 -5 46 -6 91 l-2 80 46 3 c32 1 57 -5 85 -20z"/>
<path d="M3603 4743 c-3 -15 -6 -111 -6 -213 1 -102 1 -273 2 -380 0 -107 0
-206 -2 -219 -2 -24 0 -25 77 -29 43 -2 93 -1 112 2 27 6 32 10 28 29 -4 18
-5 351 -3 722 0 39 0 77 0 85 -1 12 -20 16 -93 18 -50 2 -95 5 -100 8 -4 3
-11 -8 -15 -23z"/>
<path d="M850 4749 c-83 -8 -131 -28 -163 -71 -46 -60 -56 -135 -53 -397 3
-217 5 -240 25 -285 36 -82 88 -107 219 -102 87 2 163 25 196 59 52 52 70 158
70 422 l0 210 -29 54 c-46 84 -138 122 -265 110z m112 -202 c21 -27 28 -73 30
-192 2 -200 0 -221 -27 -253 -32 -38 -90 -50 -133 -28 -34 18 -41 26 -48 58
-28 124 -26 308 5 370 39 82 128 105 173 45z"/>
<path d="M2277 4754 c-1 -2 -85 -4 -187 -5 -215 -3 -234 -6 -237 -40 -4 -31
-3 -563 0 -691 1 -53 5 -99 9 -103 11 -11 481 -6 488 6 4 6 8 42 9 80 l2 69
-43 1 c-58 1 -250 7 -264 8 -8 1 -11 26 -10 74 l1 72 73 3 c47 2 72 7 73 15 1
22 1 132 0 149 -1 14 -14 18 -78 20 l-78 3 -1 67 c0 47 3 69 12 72 7 3 72 6
144 7 72 0 139 3 150 6 15 4 19 16 22 66 5 107 3 114 -43 119 -22 2 -41 3 -42
2z"/>
<path d="M3190 4745 c-8 -10 -73 -246 -84 -305 -2 -14 -11 -54 -20 -90 -8 -36
-17 -78 -20 -95 -3 -16 -8 -41 -11 -55 -3 -14 -7 -36 -10 -50 -2 -14 -9 -48
-14 -77 -6 -29 -13 -74 -17 -100 -3 -26 -8 -51 -11 -55 -2 -5 13 -8 34 -9 21
0 63 -1 93 -2 l54 -2 13 45 c6 25 17 71 23 102 l11 58 40 -3 c43 -2 46 -6 70
-119 6 -31 15 -62 19 -69 9 -14 107 -24 146 -15 22 6 25 10 19 34 -4 15 -9 36
-11 47 -16 84 -157 709 -169 751 -6 18 -14 20 -77 20 -38 -1 -74 -6 -78 -11z
m105 -345 c8 -52 15 -107 15 -122 0 -26 -3 -28 -41 -28 l-41 0 7 48 c6 47 12
88 21 151 4 34 13 55 20 49 2 -2 10 -46 19 -98z"/>
<path d="M1011 3484 c-194 -33 -299 -121 -352 -296 -33 -107 -30 -291 4 -310
22 -12 206 -14 287 -3 57 7 69 16 70 50 0 11 7 52 15 90 21 101 70 139 130 99
45 -30 60 -137 27 -204 -16 -32 -102 -96 -289 -215 -26 -16 -80 -55 -119 -87
-76 -61 -117 -124 -129 -198 -3 -19 -8 -46 -10 -60 -2 -14 -7 -96 -10 -182
l-5 -157 332 5 c183 3 394 6 468 7 l135 2 2 45 c6 128 3 219 -7 241 l-11 24
-265 -3 -266 -4 13 24 c25 47 74 114 103 140 17 14 66 45 111 69 301 158 358
225 357 413 -1 168 -18 241 -76 340 -29 50 -104 120 -150 141 -81 36 -247 49
-365 29z"/>
<path d="M3175 3489 c-107 -8 -221 -38 -270 -72 -74 -52 -140 -158 -164 -262
-17 -75 -16 -254 2 -272 19 -19 326 -17 358 3 4 2 10 30 14 61 15 128 46 183
103 183 74 0 111 -127 63 -220 -13 -26 -50 -56 -142 -117 -309 -203 -359 -249
-384 -348 -16 -67 -15 -54 -30 -352 -2 -48 1 -73 8 -76 7 -2 102 -3 212 0 110
2 306 5 435 7 129 2 246 4 260 5 l25 1 -2 129 c-2 71 -7 140 -12 154 l-9 24
-261 -4 c-300 -5 -284 -11 -218 89 42 63 91 99 235 173 110 56 199 120 236
167 45 60 58 112 57 233 -1 134 -14 201 -52 280 -64 130 -155 195 -294 211
-27 3 -54 6 -60 7 -5 2 -55 0 -110 -4z"/>
<path d="M4012 3492 c-17 -3 -44 -35 -98 -118 -75 -114 -184 -317 -184 -342 0
-18 71 -48 176 -72 86 -20 109 -21 146 -5 19 8 19 -25 3 -354 -9 -170 -13
-548 -6 -560 14 -22 292 -32 345 -11 14 5 28 15 31 22 2 7 6 150 10 318 3 168
8 348 10 400 5 115 6 620 1 673 -1 20 -6 40 -9 44 -7 6 -388 12 -425 5z"/>
<path d="M2077 3484 c-1 -2 -16 -5 -32 -8 -54 -10 -155 -67 -213 -121 -70 -64
-122 -167 -148 -290 -23 -110 -22 -449 2 -635 14 -111 72 -229 145 -295 40
-36 141 -90 190 -101 113 -26 250 -9 330 42 195 123 321 436 313 778 -3 131
-12 190 -44 283 -65 188 -195 311 -361 343 -47 9 -174 12 -182 4z m123 -372
c52 -52 74 -246 56 -501 -8 -119 -22 -174 -52 -206 -27 -29 -74 -34 -98 -10
-21 21 -56 136 -64 210 -10 97 -4 337 11 415 12 60 22 82 44 100 35 28 69 25
103 -8z"/>
<path d="M1058 1585 c-2 -1 -26 -5 -55 -9 -97 -11 -209 -62 -276 -125 -85 -80
-91 -110 -92 -441 0 -214 4 -265 30 -365 52 -198 156 -287 335 -287 185 1 325
59 396 166 39 60 52 110 48 191 -9 205 -151 306 -369 265 -98 -18 -97 -18
-102 15 -9 65 -6 212 6 246 37 112 127 96 143 -24 2 -14 7 -30 12 -34 14 -14
260 -2 276 13 12 13 2 151 -14 189 -40 94 -125 172 -206 190 -35 8 -126 15
-132 10z m126 -828 c19 -73 -21 -124 -94 -118 -23 2 -49 52 -40 76 11 28 43
55 76 64 37 10 51 5 58 -22z"/>
<path d="M2588 1582 c-27 -2 -38 -8 -39 -20 0 -9 -2 -65 -4 -124 l-2 -108 26
-1 c14 0 67 -2 116 -4 50 -1 132 -4 183 -6 51 -2 95 -6 98 -10 2 -4 -28 -73
-66 -154 -39 -81 -81 -171 -94 -199 -13 -28 -63 -132 -111 -231 -174 -357
-166 -339 -148 -349 19 -10 206 -9 285 3 3 1 13 13 21 28 7 16 87 161 177 323
193 349 309 581 311 618 0 15 0 72 -1 128 -1 87 -3 101 -18 103 -26 4 -691 6
-734 3z"/>
<path d="M3973 1578 c-154 -26 -263 -175 -263 -359 0 -72 26 -160 63 -213 19
-27 19 -30 3 -55 -52 -79 -80 -155 -82 -226 -9 -238 145 -379 412 -378 169 1
285 66 340 190 61 137 40 282 -56 393 -23 27 -27 37 -17 45 27 22 75 92 91
135 57 153 -11 377 -131 436 -21 10 -40 19 -43 19 -3 1 -21 5 -40 10 -45 11
-222 13 -277 3z m147 -338 c35 -35 22 -98 -23 -114 -25 -8 -67 36 -67 70 0 32
26 64 52 64 10 0 27 -9 38 -20z m17 -430 c22 -25 26 -56 12 -97 -10 -31 -14
-33 -54 -33 -26 0 -50 6 -59 16 -20 20 -20 66 -1 104 13 25 22 30 50 30 23 0
41 -7 52 -20z"/>
<path d="M2320 1561 c0 -36 -209 -642 -376 -1088 -19 -51 -34 -94 -34 -96 0
-7 73 2 80 10 4 4 28 66 54 138 26 72 54 144 61 160 39 90 295 842 295 868 0
8 -10 17 -22 21 -41 10 -58 7 -58 -13z"/>
<path d="M1595 588 c-76 -11 -73 -7 -72 -110 0 -51 2 -98 4 -104 4 -12 240
-17 247 -5 2 3 7 52 10 108 7 101 7 102 -16 107 -41 9 -125 11 -173 4z"/>
<path d="M3270 586 l-55 -11 0 -105 0 -105 123 -1 c86 -2 122 1 123 10 0 6 2
20 4 31 12 72 13 164 2 173 -7 5 -39 10 -72 11 -33 2 -62 4 -65 5 -3 2 -30 -2
-60 -8z"/>
</g>
</svg>
